<svg width="640" height="700" viewBox="0 0 640 700" fill="none" xmlns="http://www.w3.org/2000/svg">
  <rect width="640" height="700" rx="36" fill="#F8FFF7"/>
  <circle cx="320" cy="218" r="98" fill="#FFEAD3"/>
  <path d="M210 572C210 476.477 287.477 399 383 399H257C352.523 399 430 476.477 430 572V591H210V572Z" fill="#3F7B47"/>
  <circle cx="320" cy="238" r="72" fill="#F8D7B5"/>
  <path d="M257 219C257 183.654 285.654 155 321 155C356.346 155 385 183.654 385 219V228H257V219Z" fill="#1E293B"/>
  <rect x="271" y="318" width="98" height="114" rx="28" fill="#FFFFFF"/>
  <rect x="240" y="438" width="160" height="118" rx="24" fill="#DDF3DA"/>
  <rect x="287" y="357" width="67" height="31" rx="15.5" fill="#F1F5F9"/>
</svg>
