<svg width="900" height="600" viewBox="0 0 900 600" fill="none" xmlns="http://www.w3.org/2000/svg">
  <rect width="900" height="600" rx="36" fill="#F8FFF7"/>
  <circle cx="161" cy="124" r="72" fill="#DDF3DA"/>
  <circle cx="751" cy="476" r="88" fill="#FFEAD3"/>
  <rect x="130" y="275" width="643" height="130" rx="44" fill="#3F7B47"/>
  <path d="M255 231C274.929 200.461 308.983 182 345.447 182H551.589C592.598 182 630.65 203.506 652.014 238.688L704 324H225L255 231Z" fill="#5DA460"/>
  <rect x="325" y="211" width="123" height="84" rx="18" fill="#E9F7E6"/>
  <rect x="464" y="211" width="134" height="84" rx="18" fill="#E9F7E6"/>
  <circle cx="279" cy="429" r="57" fill="#1E293B"/>
  <circle cx="618" cy="429" r="57" fill="#1E293B"/>
  <circle cx="279" cy="429" r="27" fill="#CBD5E1"/>
  <circle cx="618" cy="429" r="27" fill="#CBD5E1"/>
  <rect x="683" y="343" width="64" height="18" rx="9" fill="#FFD1A5"/>
  <rect x="179" y="343" width="64" height="18" rx="9" fill="#FFD1A5"/>
</svg>
